<svg version="1" xmlns="http://www.w3.org/2000/svg" width="1365.333" height="1365.333" viewBox="0 0 1024.000000 1024.000000"><path d="M198.2 130c-3.4 2.1-6.2 7.1-6.2 11.1 0 3.2 2.8 8.2 5.8 10.4 2.5 1.8 4.4 2 30.2 2l27.5.1.3 19.2.2 19.2h64l.1 74.7c0 41.2.2 76.6.5 78.8 2 20.5 12.7 41.7 28.4 56.3 1.9 1.8 22.6 17.4 46 34.5s43 31.5 43.5 32c.6.4 10.2 7.5 21.5 15.8 11.3 8.2 21.5 16.2 22.7 17.7 4.6 5.8 4.4 15.9-.4 21.1-1 1.1-18.7 14.3-39.3 29.5L405.5 580l-.3-55.5-.2-55.5h-65.5v163.5l-2.6 3.5c-8.4 11.3-14.7 27.8-16.5 43.2-.1 1-.2 18.2-.3 38.3l-.1 36.6-7.1 6.9c-3.9 3.9-10.1 9.3-13.8 12-6.7 5.1-20.2 12.2-25.6 13.5-1.6.4-3.9.9-5 1.2-1.1.3-6 .6-11 .7-21 .6-39.7-7.6-48.4-21.2-6.1-9.6-10.8-27.1-12.6-47.2-1.6-17.7-1.8-34.9-1.9-137.5l-.1-113-32.7-.3-32.8-.2v510h34.4l15.7-10.5c8.7-5.7 16.1-11 16.4-11.6 1.5-2.3.4-21.3-1.6-30.3-3.3-14.3-4.8-21.4-5.4-25.5-.5-3.6-1-6.1-2-11.1-.6-3.2-1.3-7.7-1.9-12.1-1.6-11.6-4.6-35.3-5.1-40.4-.3-3.3-.8-7.6-1-9.5-1.7-14.9-1.7-16 0-16.6.9-.4 2-.3 2.4.2 1.5 2.2 10.1 8.5 16.1 11.7 9.4 5.1 18.2 7.7 28.6 8.4 27 1.7 55.7-10.1 84.4-34.6 3.6-3.1 7.3-6.2 8.3-7 1.6-1.3 1.7-.2 1.7 20.3V832h-64v19c0 10.4-.3 19-.7 19.1-.5.1-12.7.2-27.3.3-27.8.2-29.3.4-33.2 4.9-4.2 4.8-2.9 14 2.5 18.1l2.8 2.1 310.5.3c268.8.2 310.9 0 313.9-1.2 9-3.8 9.8-16.5 1.3-22.4-2-1.5-6-1.7-29.8-1.7l-27.5-.1-.3-19.2-.2-19.2h-64l-.1-74.8c-.1-41.1-.1-75 0-75.4.1-.7-2.4-14.8-3.3-18.3-1-4.1-5.5-14.7-8.6-20-7.4-13-15.1-20.8-34-34.6-7.4-5.4-22.7-16.6-34-24.9-11.3-8.3-21.4-15.8-22.5-16.6-1.1-.8-9.5-6.9-18.6-13.7-9.2-6.7-22.3-16.3-29.1-21.3-13.7-10.1-16.3-13.5-16-21.3.1-5.4 3.4-10.6 9.3-14.6 2.4-1.7 4.6-3.2 4.9-3.5.3-.3 2.5-2 5-3.8 2.5-1.8 10.1-7.4 17-12.5s14.8-10.8 17.5-12.8c14.7-10.6 75.6-55.4 79-58.1 17.9-14.3 30.7-37.8 33-60.8.2-1.9.4-37.1.4-78.3l.1-74.7h64v-38.5l26.2.1c22.8.1 26.8-.1 30.4-1.6 4.2-1.8 7.4-6.5 7.4-10.9 0-4-2.8-9-6.2-11.1-3.3-2-4.1-2-313.8-2s-310.5 0-313.8 2z"/></svg>