<?xml version="1.0" encoding="UTF-8" standalone="no"?>
<svg xmlns:dc="http://purl.org/dc/elements/1.1/" xmlns:cc="http://creativecommons.org/ns#" xmlns:rdf="http://www.w3.org/1999/02/22-rdf-syntax-ns#" xmlns:svg="http://www.w3.org/2000/svg" xmlns="http://www.w3.org/2000/svg" xmlns:sodipodi="http://sodipodi.sourceforge.net/DTD/sodipodi-0.dtd" xmlns:inkscape="http://www.inkscape.org/namespaces/inkscape" aria-hidden="true" class="svg-inline--fa fa-cogs fa-w-20" role="img" viewBox="0 0 128 128" version="1.1" id="svg4" sodipodi:docname="cogs-solid-white-outlined_128.svg" width="128" height="128" inkscape:version="0.92.4 (5da689c313, 2019-01-14)" inkscape:export-filename="/home/mzhukov/devel/zeit/micro-timer/MiscResources/cogs-solid-white-outlined_128.png" inkscape:export-xdpi="96" inkscape:export-ydpi="96">
  <metadata id="metadata10">
    <rdf:RDF>
      <cc:Work rdf:about="">
        <dc:format>image/svg+xml</dc:format>
        <dc:type rdf:resource="http://purl.org/dc/dcmitype/StillImage" />
        <dc:title></dc:title>
      </cc:Work>
    </rdf:RDF>
  </metadata>
  <defs id="defs8" />
  <sodipodi:namedview pagecolor="#ffffff" bordercolor="#666666" borderopacity="1" objecttolerance="10" gridtolerance="10" guidetolerance="10" inkscape:pageopacity="0" inkscape:pageshadow="2" inkscape:window-width="1920" inkscape:window-height="851" id="namedview6" showgrid="false" inkscape:pagecheckerboard="true" inkscape:zoom="3.2381807" inkscape:cx="7.3582883" inkscape:cy="58.194868" inkscape:window-x="0" inkscape:window-y="0" inkscape:window-maximized="1" inkscape:current-layer="svg4" />
  <path d="m 102.43034,51.148937 -1.64013,2.860237 c -0.60005,1.060087 -1.880158,1.500124 -3.020252,1.080089 -2.360195,-0.880073 -4.520374,-2.140177 -6.420531,-3.720308 -0.920076,-0.760062 -1.160096,-2.100173 -0.560046,-3.140259 l 1.640135,-2.860236 c -1.380114,-1.600133 -2.460203,-3.460286 -3.180263,-5.480453 h -3.300272 c -1.200099,0 -2.240185,-0.860071 -2.440202,-2.06017 -0.400033,-2.400199 -0.420035,-4.920407 0,-7.420614 0.200017,-1.200099 1.240103,-2.080171 2.440202,-2.080171 h 3.300272 c 0.72006,-2.020167 1.800149,-3.880321 3.180263,-5.480453 l -1.640135,-2.860237 c -0.60005,-1.040086 -0.380032,-2.380196 0.560046,-3.140259 1.900157,-1.580131 4.080337,-2.840235 6.420531,-3.720307 1.140094,-0.420035 2.420202,0.02 3.020252,1.080089 l 1.64013,2.860236 c 2.10018,-0.380031 4.24035,-0.380031 6.34053,0 l 1.64013,-2.860236 c 0.60005,-1.060088 1.88016,-1.500124 3.02025,-1.080089 2.3602,0.880072 4.52037,2.140176 6.42053,3.720307 0.92008,0.760063 1.1601,2.100173 0.56005,3.140259 l -1.64014,2.860237 c 1.38012,1.600132 2.46021,3.460286 3.18026,5.480453 h 3.30028 c 1.2001,0 2.24018,0.860071 2.4402,2.06017 0.40003,2.400198 0.42003,4.920406 0,7.420613 -0.20002,1.200099 -1.2401,2.080172 -2.4402,2.080172 h -3.30028 c -0.72005,2.020167 -1.80014,3.88032 -3.18026,5.480453 l 1.64014,2.860236 c 0.60005,1.040086 0.38003,2.380197 -0.56005,3.140259 -1.90016,1.580131 -4.08034,2.840235 -6.42053,3.720308 -1.14009,0.420035 -2.4202,-0.02 -3.02025,-1.080089 l -1.64013,-2.860237 c -2.08018,0.380032 -4.24035,0.380032 -6.34053,0 z m -2.10017,-11.760971 c 7.70063,5.920489 16.48136,-2.860237 10.56087,-10.560873 -7.70064,-5.940491 -16.48136,2.860236 -10.56087,10.560873 z m -23.061906,30.782543 6.740556,3.360278 c 2.020167,1.160096 2.90024,3.620299 2.100174,5.820481 -1.780147,4.8404 -5.280436,9.280766 -8.520704,13.161084 -1.480122,1.78015 -4.040334,2.22019 -6.060501,1.06009 l -5.820481,-3.36028 c -3.200264,2.74023 -6.920572,4.92041 -10.980907,6.34053 v 6.720548 c 0,2.32019 -1.660137,4.32036 -3.940326,4.72039 -4.920406,0.84007 -10.080833,0.88007 -15.181254,0 -2.30019,-0.40003 -4.000331,-2.38019 -4.000331,-4.72039 v -6.720548 c -4.060335,-1.44012 -7.780642,-3.6003 -10.980907,-6.34053 l -5.820481,3.34028 c -2.000165,1.16009 -4.580378,0.72006 -6.0605007,-1.06009 -3.2402677,-3.880319 -6.6605503,-8.320686 -8.44069744,-13.141084 -0.8000661,-2.180181 0.0800066,-4.640384 2.10017354,-5.820481 l 6.6605504,-3.360278 c -0.7800645,-4.180345 -0.7800645,-8.480701 0,-12.681048 l -6.6605504,-3.380279 c -2.02016693,-1.160096 -2.9202413,-3.620299 -2.10017354,-5.800479 1.78014714,-4.8404 5.20042974,-9.280767 8.44069744,-13.161088 1.4801227,-1.780147 4.0403337,-2.220183 6.0605007,-1.060087 l 5.820481,3.360277 c 3.200265,-2.740226 6.920572,-4.920406 10.980907,-6.340524 v -6.740557 c 0,-2.30019 1.640136,-4.300355 3.920324,-4.700388 4.920407,-0.840069 10.100835,-0.880073 15.201256,-0.02 2.30019,0.400033 4.000331,2.380197 4.000331,4.72039 v 6.720556 c 4.060335,1.440119 7.780643,3.600297 10.980907,6.340524 l 5.820481,-3.360278 c 2.000165,-1.160096 4.580379,-0.72006 6.060501,1.060088 3.240268,3.88032 6.640549,8.320687 8.420696,13.161087 0.800066,2.18018 0.02,4.640383 -2.000166,5.820481 l -6.740556,3.360278 c 0.780064,4.200347 0.780064,8.500702 0,12.701049 z m -23.521944,4.220349 c 11.840978,-15.401273 -5.740474,-32.982726 -21.141747,-21.141747 -11.840978,15.401272 5.740474,32.982725 21.141747,21.141747 z m 48.68402,36.543022 -1.64013,2.86023 c -0.60005,1.06009 -1.880158,1.50013 -3.020252,1.08009 -2.360195,-0.88007 -4.520374,-2.14018 -6.420531,-3.72031 -0.920076,-0.76006 -1.160096,-2.10017 -0.560046,-3.14026 l 1.640135,-2.86023 c -1.380114,-1.60013 -2.460203,-3.46029 -3.180263,-5.480458 h -3.300272 c -1.200099,0 -2.240185,-0.86007 -2.440202,-2.06017 -0.400033,-2.40019 -0.420035,-4.9204 0,-7.42061 0.200017,-1.2001 1.240103,-2.080171 2.440202,-2.080171 h 3.300272 c 0.72006,-2.020166 1.800149,-3.88032 3.180263,-5.480452 l -1.640135,-2.860237 c -0.60005,-1.040086 -0.380032,-2.380196 0.560046,-3.140259 1.900157,-1.580131 4.080337,-2.840235 6.420531,-3.720308 1.140094,-0.420034 2.420202,0.02 3.020252,1.08009 l 1.64013,2.860236 c 2.10018,-0.380031 4.24035,-0.380031 6.34053,0 l 1.64013,-2.860236 c 0.60005,-1.060088 1.88016,-1.500124 3.02025,-1.08009 2.3602,0.880073 4.52037,2.140177 6.42053,3.720308 0.92008,0.760063 1.1601,2.100173 0.56005,3.140259 l -1.64014,2.860237 c 1.38012,1.600132 2.46021,3.460286 3.18026,5.480452 h 3.30028 c 1.2001,0 2.24018,0.860071 2.4402,2.060171 0.40003,2.4002 0.42003,4.92041 0,7.42061 -0.20002,1.2001 -1.2401,2.08017 -2.4402,2.08017 h -3.30028 c -0.72005,2.020168 -1.80014,3.880328 -3.18026,5.480458 l 1.64014,2.86023 c 0.60005,1.04009 0.38003,2.3802 -0.56005,3.14026 -1.90016,1.58013 -4.08034,2.84024 -6.42053,3.72031 -1.14009,0.42004 -2.4202,-0.02 -3.02025,-1.08009 l -1.64013,-2.86023 c -2.08018,0.38003 -4.24035,0.38003 -6.34053,0 z m -2.10017,-11.780978 c 7.70063,5.920488 16.48136,-2.86023 10.56087,-10.560871 -7.70064,-5.920489 -16.48136,2.860241 -10.56087,10.560871 z" id="path2" inkscape:connector-curvature="0" style="fill:#ffffff;stroke:#000000" />
</svg>
