<?xml version="1.0" encoding="UTF-8" standalone="no"?>
<svg xmlns:dc="http://purl.org/dc/elements/1.1/" xmlns:cc="http://creativecommons.org/ns#" xmlns:rdf="http://www.w3.org/1999/02/22-rdf-syntax-ns#" xmlns:svg="http://www.w3.org/2000/svg" xmlns="http://www.w3.org/2000/svg" xmlns:sodipodi="http://sodipodi.sourceforge.net/DTD/sodipodi-0.dtd" xmlns:inkscape="http://www.inkscape.org/namespaces/inkscape" aria-hidden="true" class="svg-inline--fa fa-power-off fa-w-16" role="img" viewBox="0 0 128 128" version="1.1" id="svg4" sodipodi:docname="power-off-solid-black_128.svg" width="128" height="128" inkscape:version="0.92.4 (5da689c313, 2019-01-14)" inkscape:export-filename="/home/mzhukov/devel/zeit/micro-timer/MiscResources/power-off-solid-black_128.png" inkscape:export-xdpi="96" inkscape:export-ydpi="96">
  <metadata id="metadata10">
    <rdf:RDF>
      <cc:Work rdf:about="">
        <dc:format>image/svg+xml</dc:format>
        <dc:type rdf:resource="http://purl.org/dc/dcmitype/StillImage" />
        <dc:title></dc:title>
      </cc:Work>
    </rdf:RDF>
  </metadata>
  <defs id="defs8" />
  <sodipodi:namedview pagecolor="#ffffff" bordercolor="#666666" borderopacity="1" objecttolerance="10" gridtolerance="10" guidetolerance="10" inkscape:pageopacity="0" inkscape:pageshadow="2" inkscape:window-width="1920" inkscape:window-height="851" id="namedview6" showgrid="false" inkscape:pagecheckerboard="true" inkscape:zoom="3.6515437" inkscape:cx="55.869394" inkscape:cy="67.251669" inkscape:window-x="0" inkscape:window-y="0" inkscape:window-maximized="1" inkscape:current-layer="svg4" />
  <path d="m 100.57141,13.739667 c 15.99998,11.428558 26.41267,30.120599 26.41267,51.276129 0,34.742815 -28.139654,62.907864 -62.857075,62.984054 -34.666625,0.0762 -63.0602413,-28.190445 -63.1110349,-62.882467 -0.025397,-21.15553 10.3872889,-39.898365 26.3618729,-51.352319 2.971425,-2.107934 7.111103,-1.219047 8.888878,1.955553 l 4.012694,7.136499 c 1.498411,2.666664 0.7873,6.044438 -1.676189,7.873007 -10.53967,7.822213 -17.26982,20.215849 -17.26982,34.260276 -0.0254,23.441242 18.920612,42.692011 42.666615,42.692011 23.263464,0 42.818999,-18.84442 42.666619,-42.945979 -0.0762,-13.155539 -6.27301,-25.853937 -17.295221,-34.031705 -2.463489,-1.828569 -3.149202,-5.206343 -1.650791,-7.84761 l 4.012693,-7.136499 c 1.777775,-3.149203 5.892055,-4.088884 8.838089,-1.98095 z m -26.412671,53.307873 v -60.9523086 c 0,-3.3777737 -2.717457,-6.09523075080229 -6.095231,-6.09523075080229 h -8.126974 c -3.377774,0 -6.095231,2.71745705080229 -6.095231,6.09523075080229 v 60.9523086 c 0,3.377773 2.717457,6.09523 6.095231,6.09523 h 8.126974 c 3.377774,0 6.095231,-2.717457 6.095231,-6.09523 z" id="path2" inkscape:connector-curvature="0" style="fill:currentColor;stroke-width:0.25396794" />
</svg>
