<?xml version="1.0" encoding="UTF-8" standalone="no"?>
<!-- Generator: Adobe Illustrator 19.0.0, SVG Export Plug-In . SVG Version: 6.00 Build 0)  -->

<svg xmlns:dc="http://purl.org/dc/elements/1.1/" xmlns:cc="http://creativecommons.org/ns#" xmlns:rdf="http://www.w3.org/1999/02/22-rdf-syntax-ns#" xmlns:svg="http://www.w3.org/2000/svg" xmlns="http://www.w3.org/2000/svg" xmlns:sodipodi="http://sodipodi.sourceforge.net/DTD/sodipodi-0.dtd" xmlns:inkscape="http://www.inkscape.org/namespaces/inkscape" version="1.1" id="Capa_1" x="0px" y="0px" viewBox="0 0 1024 1024" xml:space="preserve" sodipodi:docname="logo-1_1024x1024.svg" width="1024" height="1024" inkscape:version="0.92.4 (5da689c313, 2019-01-14)"><metadata id="metadata51"><rdf:RDF><cc:Work rdf:about=""><dc:format>image/svg+xml</dc:format><dc:type rdf:resource="http://purl.org/dc/dcmitype/StillImage" /><dc:title></dc:title></cc:Work></rdf:RDF></metadata><defs id="defs49">
	
	
</defs><sodipodi:namedview pagecolor="#ffffff" bordercolor="#666666" borderopacity="1" objecttolerance="10" gridtolerance="10" guidetolerance="10" inkscape:pageopacity="0" inkscape:pageshadow="2" inkscape:window-width="1920" inkscape:window-height="851" id="namedview47" showgrid="false" inkscape:pagecheckerboard="true" borderlayer="true" inkscape:zoom="0.45644294" inkscape:cx="-81.603918" inkscape:cy="580.70442" inkscape:window-x="0" inkscape:window-y="0" inkscape:window-maximized="1" inkscape:current-layer="g904" />




















<g id="g904" inkscape:label="Logo" transform="translate(31.390541,-40.59906)"><g transform="matrix(12.8,0,0,12.8,96.609459,-12170.601)" inkscape:label="Hourglass" id="g60"><rect inkscape:label="Upper bottom" x="10" y="1019" style="fill:#9e6c53" width="40" height="4" id="rect4" /><path inkscape:label="Lower bottom" inkscape:connector-curvature="0" id="path8" d="m 54,1022 h -4 -44 c -0.552,0 -1,0.447 -1,1 0,0.553 0.448,1 1,1 h 44 4 c 0.552,0 1,-0.447 1,-1 0,-0.553 -0.448,-1 -1,-1 z" style="fill:#8a5336" /><path inkscape:label="Glass" style="fill:#e6e6e6" d="m 41.857,986.096 c 1.963,-1.31 3.143,-3.514 3.143,-5.874 v -11.222 h -30 v 11.222 c 0,2.36 1.18,4.564 3.143,5.874 l 9.319,6.843 c 0.338,0.248 0.538,0.642 0.538,1.061 v 0 c 0,0.419 -0.2,0.813 -0.537,1.061 l -9.319,6.843 c -1.964,1.31 -3.144,3.514 -3.144,5.874 v 11.222 h 30 v -11.222 c 0,-2.36 -1.18,-4.564 -3.143,-5.874 l -9.319,-6.843 c -0.338,-0.248 -0.538,-0.642 -0.538,-1.061 v 0 c 0,-0.419 0.2,-0.813 0.537,-1.061 z" id="path2" inkscape:connector-curvature="0" /><path inkscape:label="Sand" style="fill:#ebba16" d="m 40.192,983.6 c 1.132,-0.755 1.808,-2.018 1.808,-3.377 v 0 c 0,-1.306 -0.889,-2.445 -2.156,-2.762 l -15.053,-3.763 c -3.449,-0.863 -6.791,1.746 -6.791,5.302 v 1.223 c 0,1.359 0.676,2.622 1.808,3.377 l 9.192,6.746 v 15.877 c 0,3.63 -3.764,6.036 -7.058,4.511 v 0 c -1.774,-0.821 -3.922,0.394 -3.941,2.349 0,0.014 0,0.027 0,0.041 v 5.876 h 24 v -11.223 c 0,-0.014 0,-0.027 0,-0.041 -0.019,-1.931 -1.889,-3.322 -3.791,-2.991 l -2.049,0.357 c -2.695,0.469 -5.161,-1.605 -5.161,-4.339 v -10.417 z" id="path14" inkscape:connector-curvature="0" /><rect inkscape:label="Lower top" x="10" y="965" style="fill:#9e6c53" width="40" height="4" id="rect6" /><path inkscape:label="Upper top" inkscape:connector-curvature="0" id="path10" d="m 6,966 h 44 4 c 0.552,0 1,-0.447 1,-1 0,-0.553 -0.448,-1 -1,-1 h -4 -44 c -0.552,0 -1,0.447 -1,1 0,0.553 0.448,1 1,1 z" style="fill:#8a5336" /></g><text inkscape:label="Mu" id="text85" y="868.82312" x="30.343918" style="font-size:102.30000305px;line-height:1.25;font-family:sans-serif;-inkscape-font-specification:sans-serif;letter-spacing:0px;word-spacing:0px;fill:#000000" xml:space="preserve"><tspan style="font-size:768px;font-family:'Cambria Math';-inkscape-font-specification:'Cambria Math';fill:#ff0000;stroke:#000000" y="868.82312" x="30.343918" id="tspan83" sodipodi:role="line">µ</tspan></text>
</g></svg>